<svg xmlns="http://www.w3.org/2000/svg" viewBox="0 0 1200 1800" preserveAspectRatio="xMidYMid slice">
  <defs>
    <linearGradient id="roomFade" x1="0" x2="0" y1="0" y2="1">
      <stop offset="0" stop-color="#ffffff"/>
      <stop offset=".46" stop-color="#fbfcff"/>
      <stop offset=".72" stop-color="#eef3f8"/>
      <stop offset="1" stop-color="#dfe8ef"/>
    </linearGradient>
    <linearGradient id="floorTint" x1="0" x2="1" y1="0" y2="1">
      <stop offset="0" stop-color="#f7fbff" stop-opacity=".15"/>
      <stop offset=".52" stop-color="#dce8f1" stop-opacity=".46"/>
      <stop offset="1" stop-color="#e9e0f4" stop-opacity=".28"/>
    </linearGradient>
    <linearGradient id="floorFade" x1="0" x2="0" y1="0" y2="1">
      <stop offset="0" stop-color="#587082" stop-opacity="0"/>
      <stop offset=".34" stop-color="#587082" stop-opacity=".085"/>
      <stop offset="1" stop-color="#405a6f" stop-opacity=".22"/>
    </linearGradient>
    <linearGradient id="crossFade" x1="0" x2="0" y1="0" y2="1">
      <stop offset="0" stop-color="#496275" stop-opacity=".055"/>
      <stop offset="1" stop-color="#405a6f" stop-opacity=".16"/>
    </linearGradient>
    <radialGradient id="floorDepth" cx="50%" cy="82%" r="62%">
      <stop offset="0" stop-color="#7690a4" stop-opacity=".16"/>
      <stop offset=".42" stop-color="#91a6b7" stop-opacity=".07"/>
      <stop offset="1" stop-color="#ffffff" stop-opacity="0"/>
    </radialGradient>
    <radialGradient id="farGlow" cx="50%" cy="47%" r="54%">
      <stop offset="0" stop-color="#ffffff" stop-opacity=".85"/>
      <stop offset=".52" stop-color="#f2f6fb" stop-opacity=".38"/>
      <stop offset="1" stop-color="#ffffff" stop-opacity="0"/>
    </radialGradient>
  </defs>

  <rect width="1200" height="1800" fill="url(#roomFade)"/>
  <rect y="880" width="1200" height="920" fill="url(#floorTint)"/>
  <rect y="850" width="1200" height="950" fill="url(#floorDepth)"/>
  <rect width="1200" height="1160" fill="url(#farGlow)"/>

  <g stroke-linecap="round" fill="none">
    <g stroke="url(#floorFade)" opacity=".92">
      <path d="M600 830 L-460 1800" stroke-width="1.25"/>
      <path d="M600 830 L-230 1800" stroke-width="1.08"/>
      <path d="M600 830 L0 1800" stroke-width=".94"/>
      <path d="M600 830 L230 1800" stroke-width=".78"/>
      <path d="M600 830 L420 1800" stroke-width=".66"/>
      <path d="M600 830 L600 1800" stroke-width=".58"/>
      <path d="M600 830 L780 1800" stroke-width=".66"/>
      <path d="M600 830 L970 1800" stroke-width=".78"/>
      <path d="M600 830 L1200 1800" stroke-width=".94"/>
      <path d="M600 830 L1430 1800" stroke-width="1.08"/>
      <path d="M600 830 L1660 1800" stroke-width="1.25"/>
    </g>

    <g stroke="url(#crossFade)" opacity=".72">
      <path d="M112 1035 H1088" stroke-width=".58"/>
      <path d="M64 1142 H1136" stroke-width=".66"/>
      <path d="M4 1272 H1196" stroke-width=".76"/>
      <path d="M-70 1436 H1270" stroke-width=".88"/>
      <path d="M-164 1644 H1364" stroke-width="1.04"/>
    </g>
  </g>
</svg>
